<?xml version="1.0" standalone="no"?>
<!DOCTYPE svg PUBLIC "-//W3C//DTD SVG 20010904//EN"
 "http://www.w3.org/TR/2001/REC-SVG-20010904/DTD/svg10.dtd">
<svg version="1.0" xmlns="http://www.w3.org/2000/svg"
 width="512.000000pt" height="512.000000pt" viewBox="0 0 512.000000 512.000000"
 preserveAspectRatio="xMidYMid meet">

<g transform="translate(0.000000,512.000000) scale(0.100000,-0.100000)"
fill="#ffffff" stroke="none">
<path d="M905 5106 c-16 -8 -227 -211 -467 -453 l-438 -439 0 -1740 c0 -1919
-4 -1788 62 -1868 17 -21 54 -49 82 -62 47 -22 64 -24 209 -24 l157 0 0 -143
c0 -213 30 -285 144 -345 l51 -27 1595 0 c1440 0 1598 2 1630 16 52 24 97 65
128 118 l27 46 5 1193 5 1193 269 250 270 249 57 -62 57 -63 -21 -21 c-12 -12
-120 -112 -239 -223 -131 -122 -220 -212 -224 -227 -13 -53 31 -104 91 -104
37 0 527 456 549 510 32 81 16 129 -79 233 l-65 72 57 54 c284 268 298 289
298 431 0 102 -28 173 -95 240 -67 67 -138 95 -240 95 -134 0 -167 -21 -450
-285 l-235 -219 -5 457 c-5 498 -4 488 -66 561 -15 19 -51 44 -79 57 -46 22
-63 24 -207 24 l-158 0 0 143 c0 167 -13 223 -65 284 -19 22 -56 51 -82 64
l-48 24 -1225 2 c-1019 2 -1230 0 -1255 -11z m2450 -171 c21 -8 39 -25 45 -40
6 -17 10 -389 10 -1029 l0 -1002 -407 -378 c-225 -208 -435 -411 -468 -452
l-60 -74 -957 0 c-940 0 -958 0 -978 -20 -43 -43 -34 -110 20 -137 19 -10 220
-13 898 -13 l873 0 -78 -93 c-42 -50 -112 -128 -154 -173 -78 -81 -144 -175
-193 -271 l-26 -53 -393 0 c-369 0 -394 -1 -424 -19 -51 -32 -53 -100 -4 -138
12 -9 117 -12 417 -13 l401 0 24 -26 c30 -33 78 -54 122 -54 83 0 284 98 405
197 42 35 200 152 351 261 192 137 316 235 410 322 74 69 154 142 178 163 l43
39 0 -587 c0 -619 -1 -632 -45 -649 -9 -3 -721 -6 -1581 -6 l-1565 0 -24 25
-25 24 0 1675 0 1675 328 3 c292 3 332 5 370 22 53 23 124 101 140 154 8 27
12 140 12 354 0 173 3 318 7 321 3 4 521 7 1150 7 977 0 1149 -2 1178 -15z
m-2505 -364 c0 -250 0 -250 -24 -278 l-24 -28 -251 -3 c-138 -2 -251 0 -251 5
0 7 541 553 547 553 2 0 3 -112 3 -249z m3041 -160 l24 -19 2 -529 2 -528
-146 -135 c-79 -74 -156 -143 -169 -153 l-24 -19 0 701 0 701 144 0 c127 0
147 -2 167 -19z m959 -593 c52 -27 78 -60 90 -115 10 -42 1 -89 -23 -127 -8
-12 -73 -76 -144 -143 l-130 -123 -117 125 -116 125 134 125 c174 162 214 180
306 133z m-453 -494 c59 -64 108 -122 108 -128 0 -10 -1036 -979 -1439 -1346
l-48 -45 -114 120 c-62 66 -112 124 -111 128 3 10 1479 1385 1489 1386 3 1 55
-51 115 -115z m-488 -3105 c-27 -51 33 -49 -1609 -49 -1670 0 -1588 -3 -1610
56 -6 15 -9 85 -8 158 l3 131 1360 5 1360 5 47 28 c26 15 59 43 74 62 54 71
54 72 54 804 l1 676 167 155 167 154 3 -1083 c1 -763 -1 -1088 -9 -1102z
m-1132 1595 c54 -58 99 -109 101 -114 3 -7 -378 -287 -404 -297 -6 -2 -39 26
-73 63 -52 57 -59 69 -49 83 65 83 311 371 318 371 5 0 53 -48 107 -106z
m-449 -525 c7 -16 -203 -141 -276 -164 l-23 -7 27 54 c38 76 87 151 129 197
l37 41 51 -57 c29 -30 53 -59 55 -64z"/>
<path d="M1564 4496 c-21 -18 -28 -32 -28 -61 0 -29 7 -43 28 -61 l27 -24 369
0 369 0 26 23 c38 32 38 92 0 124 l-26 23 -369 0 -369 0 -27 -24z"/>
<path d="M560 3657 c-55 -28 -64 -94 -18 -137 22 -20 30 -20 1249 -20 l1227 0
27 32 c31 36 29 79 -6 113 -19 20 -34 20 -1237 22 -961 2 -1222 0 -1242 -10z"/>
<path d="M549 3227 c-46 -35 -50 -88 -10 -128 l29 -29 786 0 c495 0 794 4 811
10 30 11 54 60 47 96 -2 13 -16 33 -30 44 -24 20 -43 20 -821 20 -610 -1 -800
-3 -812 -13z"/>
<path d="M2509 3227 c-46 -35 -50 -88 -10 -128 l29 -29 241 0 c235 0 240 1
265 23 15 12 29 36 32 54 5 27 1 37 -24 63 l-30 30 -244 0 c-175 -1 -247 -4
-259 -13z"/>
<path d="M562 2805 c-37 -16 -56 -55 -47 -97 13 -55 26 -58 293 -58 137 0 251
4 261 10 10 5 24 23 31 40 17 42 -2 88 -46 106 -48 20 -445 19 -492 -1z"/>
<path d="M1414 2806 c-42 -18 -61 -65 -44 -106 7 -17 21 -35 31 -40 11 -6 310
-10 778 -10 l760 0 20 26 c28 35 26 77 -3 111 l-24 28 -744 2 c-607 2 -749 0
-774 -11z"/>
<path d="M539 2361 c-38 -38 -38 -74 0 -112 l29 -29 156 0 c149 0 156 1 182
24 39 33 39 89 0 122 -26 23 -33 24 -182 24 l-156 0 -29 -29z"/>
<path d="M1224 2366 c-21 -18 -28 -32 -28 -61 0 -29 7 -43 28 -61 l27 -24 583
0 583 0 27 26 c40 41 30 110 -21 133 -17 8 -199 11 -598 11 l-574 0 -27 -24z"/>
<path d="M560 1188 c-54 -29 -63 -95 -20 -138 18 -18 34 -20 140 -20 115 0
122 1 145 25 32 31 32 75 1 112 -23 27 -28 28 -133 31 -74 2 -116 -1 -133 -10z"/>
</g>
</svg>
