<?xml version="1.0" standalone="no"?>
<!DOCTYPE svg PUBLIC "-//W3C//DTD SVG 20010904//EN"
 "http://www.w3.org/TR/2001/REC-SVG-20010904/DTD/svg10.dtd">
<svg version="1.0" xmlns="http://www.w3.org/2000/svg"
 width="512.000000pt" height="512.000000pt" viewBox="0 0 512.000000 512.000000"
 preserveAspectRatio="xMidYMid meet">

<g transform="translate(0.000000,512.000000) scale(0.100000,-0.100000)"
fill="#ffffff" stroke="none">
<path d="M591 5006 c-6 -7 -34 -100 -61 -207 -28 -106 -58 -209 -68 -228 -27
-52 -91 -90 -236 -140 -100 -35 -130 -49 -138 -67 -20 -44 5 -62 156 -109 219
-68 227 -78 290 -360 36 -159 50 -204 67 -217 12 -10 25 -18 29 -18 4 0 17 8
28 18 15 13 31 64 62 202 68 300 76 310 290 375 79 24 147 49 151 57 16 24 9
57 -13 72 -13 8 -75 31 -138 50 -208 65 -217 76 -284 355 -27 112 -56 209 -63
217 -18 18 -57 18 -72 0z m59 -356 c39 -154 104 -237 220 -280 33 -12 60 -24
60 -25 0 -1 -28 -12 -61 -25 -113 -41 -186 -130 -215 -261 -9 -41 -20 -78 -24
-82 -4 -5 -13 20 -19 55 -31 160 -106 250 -246 296 l-58 18 49 18 c144 54 203
124 245 290 12 48 23 85 24 84 2 -2 13 -41 25 -88z"/>
<path d="M2415 4910 c-15 -6 -65 -122 -204 -474 -102 -256 -188 -471 -191
-477 -5 -7 -23 -5 -57 6 -45 15 -54 15 -86 1 -39 -16 -70 -58 -89 -119 -10
-33 -15 -38 -36 -34 -35 7 -87 -10 -113 -37 -12 -12 -43 -76 -69 -142 l-48
-119 -53 -5 c-64 -7 -110 -29 -137 -67 -10 -16 -185 -447 -388 -959 l-369
-932 -49 -5 c-65 -6 -103 -46 -145 -155 -36 -93 -37 -111 -15 -158 22 -47 36
-55 200 -120 l143 -57 -19 -46 c-10 -25 -35 -89 -55 -141 -21 -52 -41 -99 -46
-104 -4 -5 -59 12 -123 38 -126 50 -176 56 -232 30 -46 -22 -65 -51 -114 -174
-32 -80 -39 -109 -32 -125 13 -27 1058 -441 1090 -431 14 5 32 34 57 94 53
127 61 162 47 210 -20 66 -56 94 -187 146 -66 26 -122 49 -124 51 -8 8 111
295 123 295 7 0 68 -23 137 -50 151 -61 184 -68 232 -45 43 20 58 41 97 140
42 107 40 145 -15 205 l-23 25 274 690 c513 1293 477 1197 469 1250 -5 36 -17
58 -47 91 l-41 45 46 117 c59 148 61 186 12 240 l-34 39 19 51 c11 29 20 68
20 86 0 43 -38 91 -85 106 -19 6 -35 16 -35 22 0 5 84 221 186 480 158 397
185 473 176 492 -12 26 -39 36 -67 26z m-393 -1081 c57 -22 106 -43 110 -45 7
-5 -18 -81 -31 -96 -4 -5 -56 12 -116 36 -80 32 -109 49 -107 60 4 22 31 86
37 86 2 0 51 -18 107 -41z m-82 -200 c113 -45 211 -87 218 -93 10 -10 4 -34
-32 -126 -24 -63 -49 -116 -54 -118 -9 -3 -440 163 -450 173 -8 8 90 245 101
245 6 0 104 -37 217 -81z m-129 -355 c174 -69 324 -133 333 -143 9 -9 16 -27
16 -38 0 -19 -85 -251 -96 -262 -2 -2 -36 8 -75 24 -58 22 -75 25 -95 16 -18
-8 -24 -19 -24 -41 0 -33 18 -48 90 -76 25 -9 49 -20 54 -25 9 -8 -62 -199
-74 -199 -4 0 -38 11 -75 25 -74 28 -102 26 -111 -10 -11 -45 -1 -58 70 -87
38 -15 72 -30 74 -33 8 -8 -69 -195 -81 -195 -6 0 -64 21 -128 46 -128 51
-164 53 -175 10 -10 -43 10 -59 140 -110 69 -27 126 -53 126 -58 0 -6 -69
-187 -75 -195 -1 -2 -29 8 -63 22 -94 38 -132 31 -132 -26 0 -32 9 -39 85 -69
33 -13 62 -25 64 -26 4 -4 -70 -204 -75 -204 -3 0 -32 11 -66 25 -93 38 -128
31 -128 -26 0 -33 10 -42 80 -69 30 -12 59 -25 64 -30 8 -8 -95 -285 -112
-302 -4 -3 -173 60 -377 141 -265 106 -369 152 -367 162 4 17 721 1827 734
1852 11 21 46 36 68 30 8 -3 157 -61 331 -129z m-801 -2015 c250 -99 461 -186
468 -193 18 -18 -43 -166 -68 -166 -10 0 -227 83 -482 184 -322 128 -464 189
-466 200 -2 9 9 48 24 86 22 56 31 70 48 70 12 0 226 -81 476 -181z m-40 -358
c-10 -25 -35 -89 -55 -141 -21 -52 -42 -99 -46 -104 -6 -7 -158 45 -178 60 -3
3 91 247 110 286 8 15 18 13 98 -19 l90 -36 -19 -46z m-225 -321 c226 -89 416
-169 423 -178 18 -23 15 -51 -12 -118 -16 -39 -30 -58 -40 -56 -17 3 -899 352
-905 358 -8 8 51 144 67 154 10 6 26 9 37 7 11 -2 205 -77 430 -167z"/>
<path d="M4440 4230 c-32 -32 -24 -75 18 -91 56 -21 98 54 54 94 -25 22 -48
21 -72 -3z"/>
<path d="M4458 3906 c-8 -7 -36 -99 -63 -202 -26 -104 -56 -205 -66 -226 -30
-59 -79 -91 -212 -137 -67 -23 -132 -49 -144 -57 -23 -15 -30 -48 -14 -72 4
-7 65 -31 134 -52 144 -45 171 -57 211 -97 40 -39 48 -63 96 -278 23 -104 46
-195 51 -201 17 -20 48 -23 69 -6 16 13 32 65 66 212 51 218 62 247 109 289
36 31 67 44 223 91 81 24 105 36 113 54 21 46 0 61 -143 106 -148 46 -195 72
-228 124 -12 21 -43 124 -71 238 -27 111 -55 208 -61 215 -14 17 -53 17 -70
-1z m52 -333 c39 -180 105 -263 243 -309 l50 -17 -60 -22 c-131 -47 -192 -121
-229 -277 -9 -43 -19 -76 -21 -74 -3 2 -13 38 -23 80 -41 164 -102 227 -280
288 -12 5 -11 7 5 13 165 61 224 125 266 285 13 50 26 90 30 90 3 0 12 -26 19
-57z"/>
<path d="M2292 2778 c-7 -7 -12 -24 -12 -38 0 -14 5 -31 12 -38 9 -9 148 -12
563 -12 528 0 551 -1 582 -20 54 -33 63 -63 63 -215 l0 -135 -688 0 c-522 0
-691 -3 -700 -12 -7 -7 -12 -24 -12 -38 0 -14 5 -31 12 -38 9 -9 160 -12 620
-12 l608 0 0 -145 0 -145 -547 0 c-432 -1 -556 -4 -586 -14 -57 -21 -103 -61
-128 -113 l-24 -48 0 -495 0 -495 24 -48 c25 -52 71 -92 128 -113 30 -10 154
-13 586 -14 l547 0 0 -130 c0 -142 -6 -165 -57 -211 -15 -15 -43 -31 -62 -38
-48 -16 -1304 -16 -1352 0 -19 7 -47 23 -62 38 -56 51 -57 57 -57 353 0 231
-2 277 -16 296 -20 30 -59 29 -79 -2 -24 -36 -18 -573 7 -627 22 -51 84 -116
132 -142 l41 -22 710 0 710 0 41 22 c59 31 121 106 139 166 13 43 15 185 15
989 l0 938 63 0 c36 0 68 5 75 12 19 19 16 378 -4 426 -20 49 -60 90 -109 113
-37 17 -76 19 -605 19 -427 0 -569 -3 -578 -12z m1048 -1518 l0 -560 -545 0
c-599 0 -588 -1 -620 60 -23 44 -23 956 0 1000 31 60 18 59 618 60 l547 0 0
-560z"/>
<path d="M2586 1634 c-12 -12 -16 -36 -16 -100 l0 -84 -75 0 c-83 0 -121 -13
-129 -44 -3 -11 -6 -84 -6 -161 0 -185 0 -185 121 -185 l89 0 0 -83 c0 -129
-3 -127 191 -127 200 0 199 -1 199 125 l0 85 89 0 c122 0 121 -1 121 193 0
144 -1 149 -25 172 -22 22 -32 25 -105 25 l-80 0 0 84 c0 119 5 116 -195 116
-135 0 -166 -3 -179 -16z m264 -167 c0 -120 7 -127 121 -127 l89 0 0 -84 0
-84 -91 -4 c-114 -4 -119 -9 -119 -125 l0 -83 -85 0 -85 0 0 83 c0 116 -5 121
-119 125 l-91 4 0 84 0 84 89 0 c114 0 121 7 121 127 l0 83 85 0 85 0 0 -83z"/>
<path d="M4244 2136 c-186 -43 -340 -192 -389 -377 -60 -224 58 -484 265 -586
83 -41 136 -52 235 -53 144 0 267 51 367 153 156 158 191 402 86 599 -107 202
-346 313 -564 264z m281 -135 c65 -30 69 -33 51 -47 -23 -17 -593 -330 -618
-340 -21 -7 -23 8 -8 86 21 112 93 220 185 278 113 72 267 81 390 23z m188
-179 c16 -29 28 -54 26 -56 -28 -23 -703 -385 -710 -380 -14 8 -61 105 -54
112 15 15 691 382 699 379 5 -2 23 -27 39 -55z m45 -234 c-14 -222 -242 -399
-463 -361 -65 11 -175 55 -175 70 0 8 618 352 634 353 4 0 7 -28 4 -62z"/>
<path d="M3907 689 c-89 -21 -168 -85 -209 -168 -31 -63 -32 -176 -2 -242 29
-63 78 -116 138 -147 l51 -27 470 0 470 0 54 30 c176 97 210 334 68 473 -23
23 -64 51 -92 64 -49 23 -54 23 -480 25 -236 1 -447 -3 -468 -8z m393 -295 l0
-196 -192 4 c-217 3 -232 8 -292 81 -28 35 -31 45 -31 111 0 62 4 78 27 113
48 73 84 83 301 83 l187 0 0 -196z m524 173 c63 -35 99 -88 104 -150 8 -99
-49 -180 -143 -206 -22 -6 -115 -11 -207 -11 l-168 0 0 195 0 195 188 0 c175
0 189 -2 226 -23z"/>
</g>
</svg>
